# xmcd CD database file
#
# Track frame offsets:
#	150
#	15467
#	29287
#	42887
#	60617
#	74887
#	94935
#	108550
#	122452
#	136405
#	158702
#	174697
#	191735
#	209327
#	238670
#	251130
#	263312
#	283182
#	297227
#
# Disc length: 4178 seconds
#
# Revision: 0
# Processed by: cddbd v1.5.2PL0 Copyright (c) Steve Scherf et al.
# Submitted via: CDex 1.51
#
DISCID=1d105013
DTITLE=Joe Turner1-10 - Johnny Otis11-19 - Great Rhythm and Blues
DYEAR=1900
DGENRE=Blues
TTITLE0=Honey Hush
TTITLE1=Chains Of Love
TTITLE2=Roll 'Em Hawk
TTITLE3=Piney Brown Blues
TTITLE4=Cherry Red
TTITLE5=Nothin' From Nothin' Blues
TTITLE6=Shake Rattle and Roll
TTITLE7=Corrine Corrina
TTITLE8=TV Mama
TTITLE9=Wee Baby Blues
TTITLE10=Harlem Nocturne
TTITLE11=Lowdown Dirty Dog Blues
TTITLE12=Barrelhouse Blues
TTITLE13=Waitin'
TTITLE14=Willie And The Hand Jive
TTITLE15=Country Girl
TTITLE16=Slo Fuse
TTITLE17=The Signifyin' Monkey
TTITLE18=Bad Luck Shadow
EXTD=
EXTT0=
EXTT1=
EXTT2=
EXTT3=
EXTT4=
EXTT5=
EXTT6=
EXTT7=
EXTT8=
EXTT9=
EXTT10=
EXTT11=
EXTT12=
EXTT13=
EXTT14=
EXTT15=
EXTT16=
EXTT17=
EXTT18=
PLAYORDER=
